<?xml version="1.0" encoding="utf-8"?>
<!-- Generator: Adobe Illustrator 18.0.0, SVG Export Plug-In . SVG Version: 6.00 Build 0)  -->
<!DOCTYPE svg PUBLIC "-//W3C//DTD SVG 1.1//EN" "http://www.w3.org/Graphics/SVG/1.1/DTD/svg11.dtd" [
	<!ENTITY ns_extend "http://ns.adobe.com/Extensibility/1.0/">
	<!ENTITY ns_ai "http://ns.adobe.com/AdobeIllustrator/10.0/">
	<!ENTITY ns_graphs "http://ns.adobe.com/Graphs/1.0/">
	<!ENTITY ns_vars "http://ns.adobe.com/Variables/1.0/">
	<!ENTITY ns_imrep "http://ns.adobe.com/ImageReplacement/1.0/">
	<!ENTITY ns_sfw "http://ns.adobe.com/SaveForWeb/1.0/">
	<!ENTITY ns_custom "http://ns.adobe.com/GenericCustomNamespace/1.0/">
	<!ENTITY ns_adobe_xpath "http://ns.adobe.com/XPath/1.0/">
]>
<svg version="1.1" id="icons" xmlns:x="&ns_extend;" xmlns:i="&ns_ai;" xmlns:graph="&ns_graphs;"
	 xmlns="http://www.w3.org/2000/svg" xmlns:xlink="http://www.w3.org/1999/xlink" x="0px" y="0px" viewBox="0 0 24 24"
	 enable-background="new 0 0 24 24" xml:space="preserve">
<metadata>
	<sfw  xmlns="&ns_sfw;">
		<slices></slices>
		<sliceSourceBounds  height="200" width="332" x="21" y="-287" bottomLeftOrigin="true"></sliceSourceBounds>
		<optimizationSettings>
			<targetSettings  fileFormat="PNG24Format" targetSettingsID="0">
				<PNG24Format  transparency="true" filtered="false" noMatteColor="false" matteColor="#FFFFFF" interlaced="false">
					</PNG24Format>
			</targetSettings>
		</optimizationSettings>
	</sfw>
</metadata>
<path fill="#5B5B5B" d="M22,12.17V8.5C22,7.121,20.879,6,19.5,6h-2.899l-0.725-0.829C15.781,5.063,15.645,5,15.5,5H9V3h0.5
	C9.776,3,10,2.776,10,2.5v-2C10,0.224,9.776,0,9.5,0h-6C3.224,0,3,0.224,3,0.5v2C3,2.776,3.224,3,3.5,3H4v2H3.5
	C2.121,5,1,6.121,1,7.5v14C1,22.879,2.121,24,3.5,24h17c1.379,0,2.5-1.121,2.5-2.5v-8c0-0.121-0.044-0.238-0.124-0.329L22,12.17z
	 M19.5,7C20.327,7,21,7.673,21,8.5v2.527L17.476,7H19.5z M4,1h5v1H8.5h-4H4V1z M5,3h3v2H5V3z M22,21.5c0,0.827-0.673,1.5-1.5,1.5
	h-17C2.673,23,2,22.327,2,21.5V19h2.5C4.776,19,5,18.776,5,18.5S4.776,18,4.5,18H2v-2h2.5C4.776,16,5,15.776,5,15.5S4.776,15,4.5,15
	H2v-2h2.5C4.776,13,5,12.776,5,12.5S4.776,12,4.5,12H2v-2h2.5C4.776,10,5,9.776,5,9.5S4.776,9,4.5,9H2V7.5C2,6.673,2.673,6,3.5,6h1
	h4h6.773l5.867,6.705c0.004,0.004,0.007,0.008,0.011,0.012L22,13.688V21.5z"/>
</svg>
