<?xml version="1.0" encoding="utf-8"?>
<!-- Generator: Adobe Illustrator 18.0.0, SVG Export Plug-In . SVG Version: 6.00 Build 0)  -->
<!DOCTYPE svg PUBLIC "-//W3C//DTD SVG 1.1//EN" "http://www.w3.org/Graphics/SVG/1.1/DTD/svg11.dtd" [
	<!ENTITY ns_extend "http://ns.adobe.com/Extensibility/1.0/">
	<!ENTITY ns_ai "http://ns.adobe.com/AdobeIllustrator/10.0/">
	<!ENTITY ns_graphs "http://ns.adobe.com/Graphs/1.0/">
	<!ENTITY ns_vars "http://ns.adobe.com/Variables/1.0/">
	<!ENTITY ns_imrep "http://ns.adobe.com/ImageReplacement/1.0/">
	<!ENTITY ns_sfw "http://ns.adobe.com/SaveForWeb/1.0/">
	<!ENTITY ns_custom "http://ns.adobe.com/GenericCustomNamespace/1.0/">
	<!ENTITY ns_adobe_xpath "http://ns.adobe.com/XPath/1.0/">
]>
<svg version="1.1" id="icons" xmlns:x="&ns_extend;" xmlns:i="&ns_ai;" xmlns:graph="&ns_graphs;"
	 xmlns="http://www.w3.org/2000/svg" xmlns:xlink="http://www.w3.org/1999/xlink" x="0px" y="0px" viewBox="0 0 24 24"
	 enable-background="new 0 0 24 24" xml:space="preserve">
<metadata>
	<sfw  xmlns="&ns_sfw;">
		<slices></slices>
		<sliceSourceBounds  height="200" width="332" x="21" y="-287" bottomLeftOrigin="true"></sliceSourceBounds>
		<optimizationSettings>
			<targetSettings  fileFormat="PNG24Format" targetSettingsID="0">
				<PNG24Format  transparency="true" filtered="false" noMatteColor="false" matteColor="#FFFFFF" interlaced="false">
					</PNG24Format>
			</targetSettings>
		</optimizationSettings>
	</sfw>
</metadata>
<path fill="#5B5B5B" d="M22.5,10h-3c-0.651,0-1.201,0.419-1.408,1H13V5.908c0.581-0.207,1-0.757,1-1.408v-3
	C14,1.224,13.776,1,13.5,1h-4C9.224,1,9,1.224,9,1.5v3c0,0.651,0.419,1.201,1,1.408V11H4.908c-0.207-0.581-0.757-1-1.408-1h-3
	C0.224,10,0,10.224,0,10.5v4C0,14.776,0.224,15,0.5,15h3c0.651,0,1.201-0.419,1.408-1H10v5.092c-0.581,0.207-1,0.757-1,1.408v3
	C9,23.776,9.224,24,9.5,24h4c0.276,0,0.5-0.224,0.5-0.5v-3c0-0.651-0.419-1.201-1-1.408V14h5.092c0.207,0.581,0.757,1,1.408,1h3
	c0.276,0,0.5-0.224,0.5-0.5v-4C23,10.224,22.776,10,22.5,10z M11,6h1v13h-1V6z M10,2h3v2.5C13,4.776,12.775,5,12.5,5h-2
	C10.225,5,10,4.776,10,4.5V2z M3.5,14H1v-3h2.5C3.775,11,4,11.224,4,11.5v2C4,13.775,3.775,14,3.5,14z M5,13v-1h5v1H5z M13,23h-3
	v-2.5c0-0.275,0.225-0.5,0.5-0.5h2c0.275,0,0.5,0.225,0.5,0.5V23z M13,12h5v1h-5V12z M22,14h-2.5c-0.275,0-0.5-0.225-0.5-0.5v-2
	c0-0.276,0.225-0.5,0.5-0.5H22V14z"/>
</svg>
