<?xml version="1.0" encoding="utf-8"?>
<!-- Generator: Adobe Illustrator 18.0.0, SVG Export Plug-In . SVG Version: 6.00 Build 0)  -->
<!DOCTYPE svg PUBLIC "-//W3C//DTD SVG 1.1//EN" "http://www.w3.org/Graphics/SVG/1.1/DTD/svg11.dtd" [
	<!ENTITY ns_extend "http://ns.adobe.com/Extensibility/1.0/">
	<!ENTITY ns_ai "http://ns.adobe.com/AdobeIllustrator/10.0/">
	<!ENTITY ns_graphs "http://ns.adobe.com/Graphs/1.0/">
	<!ENTITY ns_vars "http://ns.adobe.com/Variables/1.0/">
	<!ENTITY ns_imrep "http://ns.adobe.com/ImageReplacement/1.0/">
	<!ENTITY ns_sfw "http://ns.adobe.com/SaveForWeb/1.0/">
	<!ENTITY ns_custom "http://ns.adobe.com/GenericCustomNamespace/1.0/">
	<!ENTITY ns_adobe_xpath "http://ns.adobe.com/XPath/1.0/">
]>
<svg version="1.1" id="icons" xmlns:x="&ns_extend;" xmlns:i="&ns_ai;" xmlns:graph="&ns_graphs;"
	 xmlns="http://www.w3.org/2000/svg" xmlns:xlink="http://www.w3.org/1999/xlink" x="0px" y="0px" viewBox="0 0 24 24"
	 enable-background="new 0 0 24 24" xml:space="preserve">
<metadata>
	<sfw  xmlns="&ns_sfw;">
		<slices></slices>
		<sliceSourceBounds  height="200" width="332" x="21" y="-287" bottomLeftOrigin="true"></sliceSourceBounds>
		<optimizationSettings>
			<targetSettings  fileFormat="PNG24Format" targetSettingsID="0">
				<PNG24Format  transparency="true" filtered="false" noMatteColor="false" matteColor="#FFFFFF" interlaced="false">
					</PNG24Format>
			</targetSettings>
		</optimizationSettings>
	</sfw>
</metadata>
<path fill="#5B5B5B" d="M13.349,2.781C13.062,2.292,12.558,2,12,2s-1.062,0.292-1.349,0.781L0.226,20.567
	c-0.295,0.503-0.298,1.131-0.008,1.638C0.503,22.703,1.01,23,1.574,23h20.852c0.564,0,1.071-0.297,1.356-0.795
	c0.29-0.507,0.287-1.135-0.008-1.638L13.349,2.781z M22.914,21.708C22.864,21.796,22.716,22,22.426,22H1.574
	c-0.29,0-0.438-0.204-0.488-0.292c-0.114-0.199-0.113-0.437,0.003-0.635L11.515,3.287C11.621,3.104,11.798,3,12,3
	s0.379,0.104,0.485,0.287l10.426,17.786C23.027,21.271,23.028,21.509,22.914,21.708z"/>
<path fill="#5B5B5B" d="M12.432,7.149c-0.18-0.307-0.684-0.307-0.863,0L4.477,19.247c-0.091,0.154-0.091,0.346-0.002,0.502
	C4.563,19.904,4.729,20,4.908,20h14.184c0.007,0.001,0.015,0.001,0.02,0c0.276,0,0.5-0.224,0.5-0.5c0-0.14-0.057-0.266-0.148-0.356
	L12.432,7.149z M5.781,19L12,8.391L18.219,19H5.781z"/>
</svg>
