<?xml version="1.0" encoding="utf-8"?><svg xmlns="http://www.w3.org/2000/svg" xmlns:xlink="http://www.w3.org/1999/xlink"><symbol viewBox="0 0 284.929 284.929" id="icons--arrow-up" xmlns="http://www.w3.org/2000/svg"><path d="M282.082 195.285L149.028 62.24c-1.901-1.903-4.088-2.856-6.562-2.856s-4.665.953-6.567 2.856L2.856 195.285C.95 197.191 0 199.378 0 201.853c0 2.474.953 4.664 2.856 6.566l14.272 14.271c1.903 1.903 4.093 2.854 6.567 2.854s4.664-.951 6.567-2.854l112.204-112.202 112.208 112.209c1.902 1.903 4.093 2.848 6.563 2.848 2.478 0 4.668-.951 6.57-2.848l14.274-14.277c1.902-1.902 2.847-4.093 2.847-6.566.001-2.476-.944-4.666-2.846-6.569z"/></symbol><symbol viewBox="0 0 24 24" id="icons--icon1" xmlns="http://www.w3.org/2000/svg"><path d="M23.585 10.007l-2.95-.513a8.897 8.897 0 0 0-.758-1.83L21.6 5.215a.5.5 0 0 0-.055-.641l-2.122-2.121a.5.5 0 0 0-.641-.055l-2.449 1.723a8.888 8.888 0 0 0-1.829-.758l-.513-2.95A.497.497 0 0 0 13.5 0h-3a.5.5 0 0 0-.493.415l-.513 2.95a8.865 8.865 0 0 0-1.829.758L5.217 2.399a.5.5 0 0 0-.641.055L2.454 4.575a.5.5 0 0 0-.055.641l1.723 2.449a8.897 8.897 0 0 0-.758 1.83l-2.95.513A.5.5 0 0 0 0 10.5v3a.5.5 0 0 0 .415.493l2.95.513c.184.637.438 1.25.758 1.829L2.4 18.784a.5.5 0 0 0 .055.641l2.122 2.122a.496.496 0 0 0 .641.055l2.449-1.723c.58.32 1.192.574 1.829.758l.513 2.95c.04.238.248.413.491.413h3a.5.5 0 0 0 .493-.415l.513-2.95a8.865 8.865 0 0 0 1.829-.758l2.449 1.723c.199.142.47.118.641-.055l2.122-2.122a.5.5 0 0 0 .055-.641l-1.723-2.449c.32-.58.574-1.192.758-1.829l2.95-.513A.497.497 0 0 0 24 13.5v-3a.5.5 0 0 0-.415-.493zM23 13.08l-2.849.495a.498.498 0 0 0-.399.371 7.962 7.962 0 0 1-.895 2.159.5.5 0 0 0 .02.545l1.665 2.365-1.527 1.527-2.365-1.665a.497.497 0 0 0-.545-.02 7.95 7.95 0 0 1-2.159.895.5.5 0 0 0-.371.399L13.08 23h-2.16l-.495-2.849a.498.498 0 0 0-.371-.399 7.962 7.962 0 0 1-2.159-.895.5.5 0 0 0-.545.02l-2.365 1.665-1.527-1.527 1.665-2.365a.5.5 0 0 0 .02-.545 7.95 7.95 0 0 1-.895-2.159.5.5 0 0 0-.399-.371L1 13.08v-2.16l2.849-.495a.498.498 0 0 0 .399-.371 7.943 7.943 0 0 1 .895-2.158.5.5 0 0 0-.02-.545L3.458 4.985l1.527-1.526L7.35 5.124a.501.501 0 0 0 .545.02 7.95 7.95 0 0 1 2.159-.895.5.5 0 0 0 .371-.399L10.92 1h2.159l.495 2.849a.498.498 0 0 0 .371.399 7.962 7.962 0 0 1 2.159.895.5.5 0 0 0 .545-.02l2.365-1.665 1.527 1.526-1.665 2.366a.5.5 0 0 0-.02.545 7.95 7.95 0 0 1 .895 2.159.5.5 0 0 0 .399.371l2.85.495v2.16z"/><path d="M12 6c-3.309 0-6 2.691-6 6s2.691 6 6 6 6-2.691 6-6-2.691-6-6-6zm0 11c-2.757 0-5-2.243-5-5s2.243-5 5-5 5 2.243 5 5-2.243 5-5 5z"/><path d="M12 9c-1.654 0-3 1.346-3 3s1.346 3 3 3 3-1.346 3-3-1.346-3-3-3zm0 5c-1.103 0-2-.897-2-2s.897-2 2-2 2 .897 2 2-.897 2-2 2z"/></symbol><symbol viewBox="0 0 60 24" id="icons--icon2" xmlns="http://www.w3.org/2000/svg"><path d="M59 10h-2.18c-.951-5.666-5.85-10-11.748-10-5.822 0-10.696 4.119-11.825 9.579-.971-.814-2.079-1.246-3.247-1.246-1.167 0-2.274.432-3.245 1.245C25.639 4.118 20.825 0 15.072 0 8.756 0 3.565 4.851 3.051 11H1a1 1 0 1 0 0 2h2.051c.514 6.149 5.705 11 12.021 11 6.467 0 11.736-5.207 11.911-11.671.853-1.285 1.915-1.996 3.017-1.996 1.102 0 2.164.712 3.017 1.996C33.195 18.793 38.528 24 45.072 24 51.649 24 57 18.617 57 12h2a1 1 0 1 0 0-2zM15.072 22C9.519 22 5 17.514 5 12S9.519 2 15.072 2C20.64 2 25 6.393 25 12s-4.36 10-9.928 10zm30 0C39.519 22 35 17.514 35 12S39.519 2 45.072 2C50.64 2 55 6.393 55 12s-4.36 10-9.928 10z"/></symbol><symbol viewBox="0 0 24 24" id="icons--icon3" xmlns="http://www.w3.org/2000/svg"><path d="M23.5 22c-1.082 0-1.649.296-2.15.557-.456.238-.851.443-1.688.443s-1.231-.205-1.688-.443c-.5-.261-1.068-.557-2.15-.557-1.081 0-1.647.296-2.147.557-.456.238-.85.443-1.685.443s-1.229-.205-1.684-.443C9.809 22.296 9.242 22 8.161 22c-1.08 0-1.646.296-2.146.557-.455.238-.849.443-1.684.443s-1.229-.205-1.684-.443C2.147 22.296 1.581 22 .5 22a.5.5 0 0 0 0 1c.836 0 1.229.205 1.685.443.5.261 1.066.557 2.146.557s1.646-.296 2.146-.557c.456-.238.849-.443 1.684-.443.836 0 1.229.205 1.685.443.5.261 1.066.557 2.146.557 1.081 0 1.647-.296 2.147-.557.457-.238.85-.443 1.685-.443.837 0 1.231.205 1.688.443.501.261 1.068.557 2.15.557s1.649-.296 2.15-.557c.457-.238.851-.443 1.688-.443a.5.5 0 0 0 0-1zm-3.84-4c1.082 0 1.65-.296 2.151-.557.457-.238.851-.443 1.689-.443a.5.5 0 0 0 0-1c-1.082 0-1.65.296-2.151.557-.456.238-.851.443-1.689.443s-1.232-.205-1.688-.443c-.501-.261-1.07-.557-2.152-.557-.134 0-.257.005-.369.013A4.006 4.006 0 0 0 14 14.556V13h1.5a.5.5 0 0 0 0-1H14v-2h1.5a.5.5 0 0 0 0-1H14V7h1.5a.5.5 0 0 0 0-1H14V4h1.5a.5.5 0 0 0 0-1H14V2c0-1.103-.897-2-2-2s-2 .897-2 2v12.556a3.994 3.994 0 0 0-1.456 1.467C8.417 16.014 8.305 16 8.16 16c-1.076 0-1.642.295-2.141.556-.456.238-.85.444-1.689.444-.831 0-1.224-.205-1.678-.442C2.151 16.296 1.584 16 .5 16a.5.5 0 0 0 0 1c.839 0 1.232.206 1.689.444.499.261 1.065.556 2.141.556 1.084 0 1.651-.296 2.152-.558.45-.235.843-.438 1.659-.441A3.97 3.97 0 0 0 8 18c0 .348.059.679.142 1.001-1.063.004-1.627.295-2.123.554-.456.239-.85.445-1.689.445-.831 0-1.224-.205-1.678-.442C2.151 19.296 1.584 19 .5 19a.5.5 0 0 0 0 1c.839 0 1.232.206 1.689.444.499.261 1.065.556 2.141.556 1.084 0 1.651-.296 2.152-.558.455-.237.847-.442 1.678-.442.156 0 .28.016.412.029C9.269 21.203 10.537 22 12 22c1.463 0 2.731-.797 3.429-1.972.125-.012.243-.028.391-.028.838 0 1.232.205 1.688.443.502.261 1.07.557 2.152.557s1.65-.296 2.151-.557c.457-.238.851-.443 1.689-.443a.5.5 0 0 0 0-1c-1.082 0-1.65.296-2.151.557-.456.238-.851.443-1.689.443s-1.232-.205-1.688-.443c-.495-.257-1.059-.547-2.114-.554.083-.323.142-.655.142-1.003 0-.346-.058-.677-.141-.997.808.007 1.202.207 1.65.441.501.26 1.069.556 2.151.556zM11 2a1.001 1.001 0 0 1 2 0v12.142c-.322-.084-.653-.142-1-.142s-.678.058-1 .142V2zm1 19c-1.654 0-3-1.346-3-3s1.346-3 3-3 3 1.346 3 3-1.346 3-3 3z"/></symbol><symbol viewBox="0 0 24 24" id="icons--icon4" xmlns="http://www.w3.org/2000/svg"><path d="M11.5 24C17.841 24 23 18.841 23 12.5S17.841 1 11.5 1 0 6.159 0 12.5 5.159 24 11.5 24zm0-22C17.29 2 22 6.71 22 12.5S17.29 23 11.5 23 1 18.29 1 12.5 5.71 2 11.5 2z"/><path d="M6.196 17.804c.006.006.015.008.022.015C7.575 19.166 9.441 20 11.5 20s3.925-.834 5.282-2.182c.007-.006.015-.008.022-.015s.008-.015.015-.022C18.166 16.425 19 14.559 19 12.5s-.834-3.925-2.182-5.282c-.006-.007-.008-.015-.015-.022s-.015-.008-.022-.015C15.425 5.834 13.559 5 11.5 5s-3.925.834-5.282 2.182c-.007.006-.015.008-.022.014s-.008.015-.014.022C4.834 8.575 4 10.441 4 12.5s.834 3.925 2.182 5.282c.006.007.008.015.014.022zm.373-9.528l2.847 2.847A2.424 2.424 0 0 0 9.05 12H5.025a6.475 6.475 0 0 1 1.544-3.724zM17.975 12H13.95a2.44 2.44 0 0 0-.365-.878l2.845-2.845A6.464 6.464 0 0 1 17.975 12zm-1.544 4.724l-2.847-2.847c.178-.265.303-.562.366-.877h4.024a6.467 6.467 0 0 1-1.543 3.724zm-3.869-5.276c.282.276.438.649.438 1.052s-.156.776-.438 1.052l-.002.003-.003.002-.001.002-.004.002c-.276.283-.65.439-1.052.439s-.776-.156-1.062-.448c-.282-.276-.438-.649-.438-1.052s.156-.776.448-1.061c.551-.566 1.543-.576 2.114.009zm-2.439 3.136c.265.178.562.303.877.366v4.025a6.469 6.469 0 0 1-3.724-1.544l2.847-2.847zM12 14.95c.315-.064.612-.188.877-.366l2.847 2.847A6.463 6.463 0 0 1 12 18.975V14.95zm.873-4.53a2.469 2.469 0 0 0-.873-.344V6.025a6.469 6.469 0 0 1 3.724 1.544l-2.851 2.851zM11 10.075c-.311.059-.61.174-.874.344l-2.85-2.85A6.475 6.475 0 0 1 11 6.025v4.05zM9.05 13c.064.317.188.614.365.878L6.57 16.723A6.464 6.464 0 0 1 5.025 13H9.05z"/></symbol><symbol viewBox="0 0 64 64" id="icons--icon4-1" xmlns="http://www.w3.org/2000/svg"><path d="M47 32.051V30h2v-2h-6v2h2v2.051c-7.253.516-13 6.567-13 13.949 0 2.551.697 4.938 1.894 7H16V16h31v10h2V15a1 1 0 0 0-1-1H15a1 1 0 0 0-1 1v1h-3c-3.859 0-7 3.14-7 7v23c0 3.86 3.141 7 7 7h3v1a1 1 0 0 0 1 1h20.292c2.57 3.053 6.414 5 10.708 5 7.72 0 14-6.28 14-14 0-7.382-5.747-13.433-13-13.949zM11 51c-2.757 0-5-2.243-5-5V23c0-2.757 2.243-5 5-5h3v3h-2c-1.654 0-3 1.346-3 3v21c0 1.654 1.346 3 3 3h2v3h-3zm3-28v23h-2c-.552 0-1-.449-1-1V24c0-.551.448-1 1-1h2zm32 35c-6.617 0-12-5.383-12-12s5.383-12 12-12 12 5.383 12 12-5.383 12-12 12zM24.344 8c0 .645.251 1.251.707 1.707a.416.416 0 0 1 0 .586l1.414 1.414a2.42 2.42 0 0 0 0-3.415.415.415 0 0 1 0-.585 2.42 2.42 0 0 0 0-3.415.412.412 0 0 1 0-.584l-1.414-1.415c-.456.456-.707 1.062-.707 1.707s.251 1.251.707 1.707a.415.415 0 0 1 0 .585A2.402 2.402 0 0 0 24.344 8zm5.414 0c0 .645.251 1.251.707 1.707a.416.416 0 0 1 0 .586l1.414 1.414a2.42 2.42 0 0 0 0-3.415.415.415 0 0 1 0-.585 2.42 2.42 0 0 0 0-3.415.412.412 0 0 1 0-.584l-1.414-1.415c-.456.456-.707 1.062-.707 1.707s.251 1.251.707 1.707a.415.415 0 0 1 0 .585A2.402 2.402 0 0 0 29.758 8zm5.414 0c0 .645.251 1.251.707 1.707a.416.416 0 0 1 0 .586l1.414 1.414a2.42 2.42 0 0 0 0-3.415.412.412 0 0 1 0-.585 2.42 2.42 0 0 0 0-3.415.412.412 0 0 1 0-.584l-1.414-1.415c-.456.456-.707 1.062-.707 1.707s.251 1.251.707 1.707a.415.415 0 0 1 0 .585A2.402 2.402 0 0 0 35.172 8z"/><path d="M45.803 44.783l-3.355-1.678-.895 1.789 4 2a.999.999 0 0 0 1.154-.187l4-4-1.414-1.414-3.49 3.49z"/><path d="M46 36c-5.514 0-10 4.486-10 10s4.486 10 10 10 10-4.486 10-10-4.486-10-10-10zm0 18c-4.411 0-8-3.589-8-8s3.589-8 8-8 8 3.589 8 8-3.589 8-8 8zm9.293-21.292l1.414-1.415 3 3-1.414 1.415zM33 32h2v2h-2zm-4 0h2v2h-2zm-4 0h2v2h-2z"/></symbol><symbol viewBox="0 0 24 24" id="icons--icon5" xmlns="http://www.w3.org/2000/svg"><path d="M22 12.17V8.5C22 7.121 20.879 6 19.5 6h-2.899l-.725-.829A.5.5 0 0 0 15.5 5H9V3h.5a.5.5 0 0 0 .5-.5v-2a.5.5 0 0 0-.5-.5h-6a.5.5 0 0 0-.5.5v2a.5.5 0 0 0 .5.5H4v2h-.5A2.502 2.502 0 0 0 1 7.5v14C1 22.879 2.121 24 3.5 24h17c1.379 0 2.5-1.121 2.5-2.5v-8a.498.498 0 0 0-.124-.329L22 12.17zM19.5 7c.827 0 1.5.673 1.5 1.5v2.527L17.476 7H19.5zM4 1h5v1H4V1zm1 2h3v2H5V3zm17 18.5c0 .827-.673 1.5-1.5 1.5h-17c-.827 0-1.5-.673-1.5-1.5V19h2.5a.5.5 0 0 0 0-1H2v-2h2.5a.5.5 0 0 0 0-1H2v-2h2.5a.5.5 0 0 0 0-1H2v-2h2.5a.5.5 0 0 0 0-1H2V7.5C2 6.673 2.673 6 3.5 6h11.773l5.867 6.705.011.012.849.971V21.5z"/></symbol><symbol viewBox="0 0 24 24" id="icons--icon5-1" xmlns="http://www.w3.org/2000/svg"><path d="M12.5 1H1V.5a.5.5 0 0 0-1 0v7a.5.5 0 0 0 1 0V7h1.4A11.415 11.415 0 0 0 1 12.5C1 18.841 6.159 24 12.5 24S24 18.841 24 12.5 18.841 1 12.5 1zm0 22C6.71 23 2 18.29 2 12.5c0-1.966.552-3.858 1.573-5.5h5.479A6.494 6.494 0 0 0 6 12.5c0 3.584 2.916 6.5 6.5 6.5s6.5-2.916 6.5-6.5S16.084 6 12.5 6H1V2h11.5C18.29 2 23 6.71 23 12.5S18.29 23 12.5 23zm-3.517-6.276l2.138-2.138c.267.177.564.3.879.364v3.025a5.482 5.482 0 0 1-3.017-1.251zm4.578-5.284c.283.283.439.659.439 1.06s-.156.777-.44 1.061c-.564.566-1.554.567-2.12-.001A1.485 1.485 0 0 1 11 12.5c0-.401.156-.777.439-1.061.284-.283.661-.439 1.061-.439s.777.156 1.061.44zM12 10.073a2.488 2.488 0 0 0-.875.345L8.983 8.276A5.482 5.482 0 0 1 12 7.025v3.048zm-3.724-1.09l2.138 2.138a2.48 2.48 0 0 0-.364.879H7.025a5.482 5.482 0 0 1 1.251-3.017zM10.05 13c.063.315.187.612.364.879l-2.138 2.138A5.482 5.482 0 0 1 7.025 13h3.025zM13 14.95c.315-.063.612-.187.879-.364l2.138 2.138A5.48 5.48 0 0 1 13 17.975V14.95zm3.724 1.067l-2.138-2.138c.177-.267.3-.564.364-.879h3.025a5.482 5.482 0 0 1-1.251 3.017zM14.95 12a2.47 2.47 0 0 0-.364-.879l2.138-2.138A5.48 5.48 0 0 1 17.975 12H14.95zm-1.075-1.582a2.507 2.507 0 0 0-.875-.345V7.025a5.475 5.475 0 0 1 3.017 1.251l-2.142 2.142z"/></symbol><symbol viewBox="0 0 24 24" id="icons--icon5-2" xmlns="http://www.w3.org/2000/svg"><path d="M22.5 10h-3c-.651 0-1.201.419-1.408 1H13V5.908c.581-.207 1-.757 1-1.408v-3a.5.5 0 0 0-.5-.5h-4a.5.5 0 0 0-.5.5v3c0 .651.419 1.201 1 1.408V11H4.908c-.207-.581-.757-1-1.408-1h-3a.5.5 0 0 0-.5.5v4a.5.5 0 0 0 .5.5h3c.651 0 1.201-.419 1.408-1H10v5.092c-.581.207-1 .757-1 1.408v3a.5.5 0 0 0 .5.5h4a.5.5 0 0 0 .5-.5v-3c0-.651-.419-1.201-1-1.408V14h5.092c.207.581.757 1 1.408 1h3a.5.5 0 0 0 .5-.5v-4a.5.5 0 0 0-.5-.5zM11 6h1v13h-1V6zm-1-4h3v2.5a.5.5 0 0 1-.5.5h-2a.5.5 0 0 1-.5-.5V2zM3.5 14H1v-3h2.5a.5.5 0 0 1 .5.5v2c0 .275-.225.5-.5.5zM5 13v-1h5v1H5zm8 10h-3v-2.5c0-.275.225-.5.5-.5h2c.275 0 .5.225.5.5V23zm0-11h5v1h-5v-1zm9 2h-2.5a.501.501 0 0 1-.5-.5v-2a.5.5 0 0 1 .5-.5H22v3z"/></symbol><symbol viewBox="0 0 24 24" id="icons--icon5-3" xmlns="http://www.w3.org/2000/svg"><path d="M12.5 2.025V1.5A.5.5 0 0 0 12 1C5.383 1 0 6.383 0 13a.5.5 0 0 0 .5.5h.525C1.289 19.333 6.103 24 12 24c6.065 0 11-4.935 11-11 0-5.897-4.667-10.711-10.5-10.975zm-1-.014v2.002c-4.565.252-8.235 3.922-8.486 8.487H1.011C1.267 6.832 5.832 2.266 11.5 2.011zM12 23c-5.345 0-9.712-4.219-9.975-9.5H3.5A.5.5 0 0 0 4 13c0-4.411 3.589-8 8-8a.5.5 0 0 0 .5-.5V3.025C17.781 3.288 22 7.655 22 13c0 5.514-4.486 10-10 10z"/><path d="M18 13c0-3.309-2.691-6-6-6s-6 2.691-6 6 2.691 6 6 6 6-2.691 6-6zm-6 5c-2.757 0-5-2.243-5-5s2.243-5 5-5 5 2.243 5 5-2.243 5-5 5z"/><path d="M12 10c-1.654 0-3 1.346-3 3s1.346 3 3 3 3-1.346 3-3-1.346-3-3-3zm0 5c-1.103 0-2-.897-2-2s.897-2 2-2 2 .897 2 2-.897 2-2 2zm6.633 2.469a8.009 8.009 0 0 1-3.523 2.902.5.5 0 0 0 .39.921 9.008 9.008 0 0 0 2.86-1.93 9.182 9.182 0 0 0 1.1-1.332.5.5 0 0 0-.827-.561zm1.17-1.059a.498.498 0 0 0 .642-.296c.156-.423.282-.861.372-1.301a.499.499 0 1 0-.979-.202 8.035 8.035 0 0 1-.331 1.157.5.5 0 0 0 .296.642z"/></symbol><symbol viewBox="0 0 24 24" id="icons--icon5-4" xmlns="http://www.w3.org/2000/svg"><path d="M23.5 15h-2a.5.5 0 0 0-.5.5v.5h-1V9.5c0-.827-.673-1.5-1.5-1.5H18V7h.5a.5.5 0 0 0 .5-.5v-1c0-.827-.673-1.5-1.5-1.5S16 4.673 16 5.5v1a.5.5 0 0 0 .5.5h.5v1h-3V7h.5a.5.5 0 0 0 .5-.5v-1c0-.827-.673-1.5-1.5-1.5S12 4.673 12 5.5v1a.5.5 0 0 0 .5.5h.5v1h-3V7h.5a.5.5 0 0 0 .5-.5v-1c0-.827-.673-1.5-1.5-1.5S8 4.673 8 5.5v1a.5.5 0 0 0 .5.5H9v1H6V7h.5a.5.5 0 0 0 .5-.5v-1C7 4.673 6.327 4 5.5 4S4 4.673 4 5.5v1a.5.5 0 0 0 .5.5H5v1h-.5C3.673 8 3 8.673 3 9.5v.5H2V8.5a.5.5 0 0 0-1 0v4a.5.5 0 0 0 1 0V11h1v4h-.5c-.827 0-1.5.673-1.5 1.5v2c0 .827.673 1.5 1.5 1.5h.592c.207.581.757 1 1.408 1h14c.651 0 1.201-.419 1.408-1H21v.5a.5.5 0 0 0 .5.5h2a.5.5 0 0 0 .5-.5v-5a.5.5 0 0 0-.5-.5zM17 5.5a.5.5 0 0 1 1 0V6h-1v-.5zm-4 0a.5.5 0 0 1 1 0V6h-1v-.5zm-4 0a.5.5 0 0 1 1 0V6H9v-.5zm-4 0a.5.5 0 0 1 1 0V6H5v-.5zm-1 4a.5.5 0 0 1 .5-.5h14a.5.5 0 0 1 .5.5V11H4V9.5zm-2 9v-2a.5.5 0 0 1 .5-.5H3v3h-.5a.5.5 0 0 1-.5-.5zM18.5 20h-14a.5.5 0 0 1-.5-.5V12h15v3h-2.5a.5.5 0 0 1-.5-.5v-1.125a.5.5 0 0 0-1 0V14.5c0 .176.036.343.092.5H13.5a.5.5 0 0 1-.5-.5v-1.125a.5.5 0 0 0-1 0V14.5c0 .176.036.343.092.5H10.5a.5.5 0 0 1-.5-.5v-1.125a.5.5 0 0 0-1 0V14.5c0 .176.036.343.092.5H7.5a.5.5 0 0 1-.5-.5v-1.125a.5.5 0 0 0-1 0V14.5c0 .827.673 1.5 1.5 1.5H19v3.5a.5.5 0 0 1-.5.5zm1.5-1v-2h1v2h-1zm3 1h-1v-4h1v4z"/></symbol><symbol viewBox="0 0 24 24" id="icons--icon6" xmlns="http://www.w3.org/2000/svg"><path d="M.5 23h13a.5.5 0 0 0 .5-.5v-7c0-1.93-1.57-3.5-3.5-3.5H9V9.949c1.14-.232 2-1.242 2-2.449V4h.458a.5.5 0 0 0 .5-.5v-2a.5.5 0 0 0-.5-.5h-9a.5.5 0 0 0-.5.5v2a.5.5 0 0 0 .5.5H3v3.5c0 1.207.86 2.217 2 2.449V12H3.5C1.57 12 0 13.57 0 15.5v7a.5.5 0 0 0 .5.5zM2.958 2h8v1h-8V2zM9.39 4C8.679 4.649 7.856 5 7 5s-1.679-.351-2.39-1h4.78zM4 7.5V4.794C4.881 5.577 5.913 6 7 6s2.119-.423 3-1.206V7.5C10 8.327 9.327 9 8.5 9h-3C4.673 9 4 8.327 4 7.5zM5.5 13a.5.5 0 0 0 .5-.5V10h2v2.5a.5.5 0 0 0 .5.5h1.201C9.218 14.202 8.176 15 7 15s-2.218-.798-2.701-2H5.5zM1 15.5c0-1.295.994-2.351 2.258-2.475C3.815 14.792 5.294 16 7 16s3.185-1.208 3.742-2.975A2.494 2.494 0 0 1 13 15.5V22H1v-6.5z"/><path d="M6.5 8h1a.5.5 0 0 0 0-1h-1a.5.5 0 0 0 0 1zm14.877-4.4a.494.494 0 0 0-.462-.006.497.497 0 0 0-.27.375L20.066 8h-1.933l-.589-4.121a.5.5 0 0 0-.711-.38A5.009 5.009 0 0 0 14 8c0 1.58.743 3.055 2 3.999V20c0 1.654 1.346 3 3 3s3-1.346 3-3v-8.001A4.995 4.995 0 0 0 24 8a4.99 4.99 0 0 0-2.623-4.4zm-.155 7.725a.497.497 0 0 0-.222.415V20c0 1.103-.897 2-2 2s-2-.897-2-2v-8.26a.5.5 0 0 0-.222-.416 3.995 3.995 0 0 1-.117-6.564l.544 3.811A.5.5 0 0 0 17.7 9h2.8a.5.5 0 0 0 .495-.429l.528-3.678A3.995 3.995 0 0 1 23 8a3.998 3.998 0 0 1-1.778 3.325z"/><circle cx="19" cy="20" r="1"/></symbol><symbol viewBox="0 0 64 64" id="icons--icon7" xmlns="http://www.w3.org/2000/svg"><path d="M3 62h54c2.757 0 5-2.243 5-5V23a1 1 0 0 0-1-1H43V9c0-3.859-3.141-7-7-7s-7 3.141-7 7v8.586L24.586 22H3a1 1 0 0 0-1 1v38a1 1 0 0 0 1 1zm22-38c.266 0 .52-.105.707-.293l5-5A.996.996 0 0 0 31 18V9c0-2.757 2.243-5 5-5s5 2.243 5 5v14a1 1 0 0 0 1 1h18v8h-6v2h6v8h-6v2h6v8h-6v2h6v3c0 1.654-1.346 3-3 3H22V24h3zm-5 36h-6V24h6v36zM4 24h8v36H4V24z"/><path d="M16 56h2v2h-2z"/></symbol><symbol viewBox="0 0 24 24" id="icons--icon8" xmlns="http://www.w3.org/2000/svg"><path d="M22.13 8.124c-.003-.008-.002-.017-.005-.025-.002-.005-.007-.009-.01-.014A11.546 11.546 0 0 0 19.652 4.4c-.008-.01-.012-.022-.021-.031s-.021-.013-.031-.022a11.546 11.546 0 0 0-3.685-2.463c-.005-.002-.009-.007-.014-.01-.008-.004-.017-.002-.026-.005a11.438 11.438 0 0 0-8.751.001c-.008.003-.017.001-.025.005-.006.002-.009.007-.015.01A11.523 11.523 0 0 0 3.4 4.347c-.01.009-.023.012-.032.021s-.012.022-.021.032A11.546 11.546 0 0 0 .884 8.085c-.002.005-.007.008-.009.014-.003.008-.002.017-.005.025a11.429 11.429 0 0 0 0 8.752c.003.008.002.017.005.025.002.004.006.005.008.009a11.543 11.543 0 0 0 2.464 3.69c.008.01.012.022.021.031s.022.013.032.022C5.48 22.72 8.343 24 11.5 24s6.02-1.28 8.1-3.347c.01-.008.022-.012.031-.021s.013-.022.021-.031a11.527 11.527 0 0 0 2.464-3.69c.002-.004.006-.005.008-.009.003-.008.002-.017.005-.025a11.429 11.429 0 0 0 .001-8.753zM4.449 20.258l1.04-1.04a.5.5 0 0 0-.707-.707l-1.04 1.04a10.51 10.51 0 0 1-1.729-2.58l.439-.182a.5.5 0 0 0-.382-.924l-.44.182A10.434 10.434 0 0 1 1.025 13H2.5a.5.5 0 0 0 0-1H1.025c.05-1.065.258-2.088.605-3.047l.439.182a.497.497 0 0 0 .653-.271.5.5 0 0 0-.271-.653l-.438-.182a10.51 10.51 0 0 1 1.729-2.58l1.04 1.04a.5.5 0 1 0 .708-.706l-1.04-1.04a10.51 10.51 0 0 1 2.58-1.729l.182.439a.501.501 0 0 0 .653.271.504.504 0 0 0 .27-.655l-.182-.439A10.434 10.434 0 0 1 11 2.025V3.5a.5.5 0 0 0 1 0V2.025c1.065.05 2.088.258 3.047.605l-.182.439a.5.5 0 0 0 .924.382l.182-.439a10.51 10.51 0 0 1 2.58 1.729l-1.04 1.04a.5.5 0 0 0 .708.707l1.04-1.04a10.51 10.51 0 0 1 1.729 2.58l-.439.182a.5.5 0 0 0 .382.924l.439-.182c.346.96.554 1.982.605 3.047H20.5a.5.5 0 0 0 0 1h1.475a10.369 10.369 0 0 1-.605 3.047l-.439-.182a.5.5 0 0 0-.382.924l.439.182a10.51 10.51 0 0 1-1.729 2.58l-1.04-1.04a.5.5 0 0 0-.707.707l1.04 1.04C16.685 21.955 14.215 23 11.5 23s-5.185-1.045-7.051-2.742z"/><path d="M10 12.5c0 .827.673 1.5 1.5 1.5s1.5-.673 1.5-1.5-.673-1.5-1.5-1.5c-.231 0-.447.057-.643.15L6.854 7.146a.5.5 0 0 0-.707.707l4.004 4.004A1.48 1.48 0 0 0 10 12.5zm2 0c0 .275-.225.5-.5.5s-.5-.225-.5-.5.225-.5.5-.5.5.225.5.5zm3.5 2.5h-8a.5.5 0 0 0-.5.5v2a.5.5 0 0 0 .5.5h8a.5.5 0 0 0 .5-.5v-2a.5.5 0 0 0-.5-.5zm-.5 2H8v-1h7v1z"/></symbol><symbol viewBox="0 0 24 24" id="icons--icon8-1" xmlns="http://www.w3.org/2000/svg"><path d="M13.349 2.781a1.554 1.554 0 0 0-2.698 0L.226 20.567a1.638 1.638 0 0 0-.008 1.638A1.55 1.55 0 0 0 1.574 23h20.852a1.55 1.55 0 0 0 1.356-.795 1.638 1.638 0 0 0-.008-1.638L13.349 2.781zm9.565 18.927a.559.559 0 0 1-.488.292H1.574a.559.559 0 0 1-.488-.292.628.628 0 0 1 .003-.635L11.515 3.287a.552.552 0 0 1 .97 0l10.426 17.786a.628.628 0 0 1 .003.635z"/><path d="M12.432 7.149c-.18-.307-.684-.307-.863 0L4.477 19.247a.5.5 0 0 0 .431.753h14.184a.5.5 0 0 0 .372-.856L12.432 7.149zM5.781 19L12 8.391 18.219 19H5.781z"/></symbol><symbol viewBox="0 0 138.91 34.76" id="icons--logo" xmlns="http://www.w3.org/2000/svg"><defs><style>.pcls-1{fill:#f44336}</style></defs><g id="pСлой_2" data-name="Слой 2"><g id="pСлой_1-2" data-name="Слой 1"><path class="pcls-1" d="M11.76 17.25L4.31 24.6c-1.33 1.31-2.41 2-3.22 2S0 26.31 0 25.8q0-1.26 2.66-3.57a11.79 11.79 0 0 1 3.33-2l2.69-3-2 .07c-.89 0-1.33-.25-1.33-.76s.53-1.12 1.58-2.1a10.33 10.33 0 0 1 2.42-1.84 7.41 7.41 0 0 1 3.08-.66c.35 0 .52.09.52.27s-.45.37-1.36.46-1.19.25-1.19.46.18.36.56.31h.24l1.93-.07Q27.34 1 29.89 1a1.13 1.13 0 0 1 .84.44 1.41 1.41 0 0 1 .39 1 5.53 5.53 0 0 1-.88 2.24l-4.44 7.78 2.06-.07a2.72 2.72 0 0 1 1 .21 22.24 22.24 0 0 0-2.62 4l-2.8.13L22 19.22a6.16 6.16 0 0 0-.77 1.64.57.57 0 0 0 .21.38.61.61 0 0 0 .46.22c.39 0 1.4-.64 3-1.9l.63.92q-4.66 4.44-7 4.44a1.77 1.77 0 0 1-1.33-.54 1.86 1.86 0 0 1-.5-1.38 6.68 6.68 0 0 1 1-3.12L19.32 17zm10.15-4.62l4.76-7.94A117 117 0 0 0 16.52 13zm14.84 8.89q-3.68 4-5.85 4c-1 0-1.72-.63-2.17-1.89a10.87 10.87 0 0 1-.63-3.71 13.42 13.42 0 0 1 .9-4.63 21.37 21.37 0 0 1 2.29-4.49 32.74 32.74 0 0 1 3.12-4A43 43 0 0 1 38 3.29a18.84 18.84 0 0 1 2.39-2.06A5.9 5.9 0 0 1 42.67 0a.61.61 0 0 1 .61.44 2.82 2.82 0 0 1 .16.92 8.54 8.54 0 0 1-1.37 3.91 36.79 36.79 0 0 1-3.38 4.88 83.228 83.228 0 0 1-4.13 4.73A47.73 47.73 0 0 1 31 18.31c0 .6-.06 1-.06 1.22 0 1.77.38 2.66 1.15 2.66s1.46-.65 2.48-2a3.37 3.37 0 0 1-.35-1.5 4.62 4.62 0 0 1 1.28-3.05 8.37 8.37 0 0 1 2.89-2.2 1.33 1.33 0 0 1 .53-.11c.48 0 .73.3.73.91a11.09 11.09 0 0 1-1.65 5 1.68 1.68 0 0 0 1 .35 2.14 2.14 0 0 0 .82-.18 4.31 4.31 0 0 0 .88-.49c.29-.21.52-.39.7-.54s.47-.39.89-.72v1.51a26.57 26.57 0 0 1-2.47 1.85 3.88 3.88 0 0 1-2.12.66 2.58 2.58 0 0 1-.95-.16zm-4.45-6.61c1.71-1.94 3-3.41 3.85-4.43A36.62 36.62 0 0 0 38.78 7a25.26 25.26 0 0 0 2.27-4.23 63.4 63.4 0 0 0-5.16 6 30.5 30.5 0 0 0-3.59 6.14zm10.05 5.7v-.45c0-.09 0-.44.07-1.05q.45-1.55 3.11-3.46a25.14 25.14 0 0 1 5.15-2.75 13.39 13.39 0 0 1 4.69-1.21 2.12 2.12 0 0 1 1.82.91 1.57 1.57 0 0 1 .35.73c0 .24-.41.53-1.23.88a1.4 1.4 0 0 1 1 1.29 2.27 2.27 0 0 1-.7 1.4c-1.61 1.9-2.41 3.19-2.41 3.89s.4 1 1.19 1a5.38 5.38 0 0 0 2.45-1.09c.7-.54 1.41-1.07 2.13-1.61 0 .61-.07 1-.07 1.05a2.48 2.48 0 0 0 0 .45c-.21.14-.7.53-1.47 1.16q-2.91 2.31-4 3a3.74 3.74 0 0 1-1.92.7 1.41 1.41 0 0 1-1.08-.45 1.78 1.78 0 0 1-.43-1.23 10.8 10.8 0 0 1 1.33-4.06c-3.13 2.47-5 3.91-5.57 4.32a2.7 2.7 0 0 1-1.4.61c-.77 0-1.55-.71-2.34-2.14a5.41 5.41 0 0 1-.67-1.89zm11.86-5.53c-.84.24-2.05.61-3.64 1.13a13.59 13.59 0 0 0-4.86 2.9 2.76 2.76 0 0 0-.7 2c0 .59.17.88.52.88q.78 0 3.54-2.1a33.25 33.25 0 0 0 5.14-4.81z"/><path class="pcls-1" d="M63.14 17.64a20.83 20.83 0 0 0 2.47-.24c1.15-.17 1.86-.25 2.11-.25A9.16 9.16 0 0 1 69 14.94a22 22 0 0 1 2-2.23c.09-.08.3-.25.61-.53a7.27 7.27 0 0 1 .88-.68 1.27 1.27 0 0 1 .68-.27.68.68 0 0 1 .17 0c.35.19.53.64.53 1.36a3.35 3.35 0 0 1-.14 1 5 5 0 0 1-1.1 1.56 13.53 13.53 0 0 0-1.14 1.35c-.58.88-1.09 1.69-1.51 2.41a3.86 3.86 0 0 0-.63 1.85.83.83 0 0 0 .07.35.8.8 0 0 0 .74.53 4.08 4.08 0 0 0 2.1-1.05l1.64-1.43 1.05-1c.24-.21.42-.38.56-.52v1.58c-.18.23-.36.44-.54.64l-.89 1c-.7.79-1.41 1.52-2.12 2.18a11.29 11.29 0 0 1-2.17 1.63 4.17 4.17 0 0 1-2 .63c-1.12-.12-1.68-.9-1.68-2.35a8.7 8.7 0 0 1 .32-2.18 11.06 11.06 0 0 1 .57-1.83 19.44 19.44 0 0 0-2.22.45 12.6 12.6 0 0 1-2.57.42c-.12.61-.22 1.21-.32 1.82a17.05 17.05 0 0 1-.35 1.73 4.9 4.9 0 0 1-.42 1.18 1.24 1.24 0 0 1-1.08.48h-.42l-.49-.07h-.32a5.56 5.56 0 0 1-.17-1.51 20.78 20.78 0 0 1 .63-4.65 17.81 17.81 0 0 1 .77-2.47 16.8 16.8 0 0 1 1.21-2.56A5.5 5.5 0 0 1 62.72 12a2.51 2.51 0 0 1 1.54-.49 3.31 3.31 0 0 1 1.61.42.44.44 0 0 1 .28.42c0 .4-.35.93-1.05 1.61a3.17 3.17 0 0 1-.37.91l-.86 1.47c-.39.66-.64 1.09-.73 1.3zm22.5-5.43a4.45 4.45 0 0 1 .53 0c.46 0 .85.3 1.15.91a2.94 2.94 0 0 1 .35 1.26q0 .76-1.5 2.1-2.62 2.31-2.63 4a.84.84 0 0 0 .95.95q1.13 0 4.62-2.28v1.5c-2.49 1.92-4.11 3.1-4.84 3.56a4 4 0 0 1-2 .68 2.06 2.06 0 0 1-1.61-.77 2.66 2.66 0 0 1-.67-1.78 5.51 5.51 0 0 1 .91-2.95 28.34 28.34 0 0 1 2.38-3.08l-3.92.84a30.41 30.41 0 0 1-3.85 3.5v-.45c0-.09 0-.44.07-1.05a13.21 13.21 0 0 0 2-1.86.86.86 0 0 1-.87-.94 5 5 0 0 1 1.89-3.46z"/><path class="pcls-1" d="M89.07 20.61v-.45c0-.09 0-.44.07-1.05q.47-1.55 3.12-3.46a25 25 0 0 1 5.14-2.75 13.44 13.44 0 0 1 4.69-1.21 2.12 2.12 0 0 1 1.82.91 1.47 1.47 0 0 1 .35.73c0 .24-.4.53-1.22.88a1.41 1.41 0 0 1 1 1.29 2.27 2.27 0 0 1-.7 1.4c-1.61 1.9-2.42 3.19-2.42 3.89s.4 1 1.19 1a5.34 5.34 0 0 0 2.45-1.09c.7-.54 1.42-1.07 2.14-1.61-.05.61-.07 1-.07 1.05a2.64 2.64 0 0 0 0 .45c-.21.14-.7.53-1.47 1.16q-2.9 2.31-4 3a3.8 3.8 0 0 1-1.93.7 1.39 1.39 0 0 1-1.07-.45 1.74 1.74 0 0 1-.48-1.19 11 11 0 0 1 1.32-4.1c-3.12 2.47-5 3.91-5.56 4.32a2.7 2.7 0 0 1-1.4.61c-.77 0-1.55-.71-2.35-2.14a5.85 5.85 0 0 1-.62-1.89zm11.87-5.53c-.84.24-2 .61-3.64 1.13a13.73 13.73 0 0 0-4.87 2.9 2.81 2.81 0 0 0-.7 2c0 .59.18.88.53.88.51 0 1.69-.7 3.53-2.1a33.32 33.32 0 0 0 5.15-4.81z"/><path class="pcls-1" d="M123.41 20.16v.45a37.67 37.67 0 0 1-5.29 3.29 8.24 8.24 0 0 1-3.5.81 5.89 5.89 0 0 1-2.55-.66 13.12 13.12 0 0 1-1.54.17 13.69 13.69 0 0 1-1.47-.17c-.37.69-1 1.9-1.86 3.6a31.25 31.25 0 0 1-1.89 3.41 1.43 1.43 0 0 1-1.12.72c-.65 0-1-.51-1-1.54a7.47 7.47 0 0 1 1.3-3.92c.35-.56 1.13-1.63 2.34-3.22a45.24 45.24 0 0 0 3.78-5.6q-1.18 1-4 3.11a2.48 2.48 0 0 1 0-.45c0-.09 0-.44.07-1.05a22 22 0 0 0 3.12-2.59c.58-.65 1.59-2 3-4a36.75 36.75 0 0 1 3-3.91 2.45 2.45 0 0 1 1.72-.86 2.2 2.2 0 0 1 1.05.25c.3.16.45.35.45.56 0 .4-.78 1.4-2.34 3a18.5 18.5 0 0 0-3 4.13q4.88-3.33 6.79-3.33a1.45 1.45 0 0 1 1.07.48 1.48 1.48 0 0 1 .47 1.1 6.45 6.45 0 0 1-1.26 3.15 24.43 24.43 0 0 1-3.6 3.89 8.53 8.53 0 0 0-.91.84h.94q2.25 0 6.34-2.73c-.09.63-.11.98-.11 1.07zm-11.94.53h.35a8.66 8.66 0 0 1 2.52.38q3.41-3.5 3.4-4.55c0-.35-.14-.52-.42-.52a4.32 4.32 0 0 0-1.42.61 12.32 12.32 0 0 0-1.77 1.17 25.49 25.49 0 0 0-2.66 2.91z"/><path class="pcls-1" d="M131.88 19.74a23.29 23.29 0 0 1-3.45 3.26 6.35 6.35 0 0 1-3.66 1.64c-.7-.13-1.22-.71-1.57-1.71a8.71 8.71 0 0 1-.53-2.87 5.65 5.65 0 0 1 .41-2.1 6.27 6.27 0 0 1 1.13-1.86 13.49 13.49 0 0 1 1.86-1.75 26.33 26.33 0 0 1 2.41-1.69 25.47 25.47 0 0 1 2.52-1.39 4.3 4.3 0 0 1 1.75-.39 3.5 3.5 0 0 1 1.33.25c.47.21.7.48.7.81 0 .58-.58 1.22-1.75 1.92-.35.23-1.07.62-2.17 1.17s-2.05 1.09-2.87 1.61a9.19 9.19 0 0 0-2.08 1.82 3.57 3.57 0 0 0-.86 2.33.64.64 0 0 0 .28.52.94.94 0 0 0 .6.21 4.17 4.17 0 0 0 1.91-.83 22.89 22.89 0 0 0 2.08-1.83c.3-.3.9-1 1.78-2.08s1.5-1.81 1.82-2.17a8.68 8.68 0 0 1 1.09-1 1.18 1.18 0 0 1 .73-.31.58.58 0 0 1 .56.31 2.45 2.45 0 0 1 .42 1.37 3.74 3.74 0 0 1-.24 1.31c-.16.43-.42 1-.77 1.73l-2.14 4.38q1.68-1.26 2.52-1.92c.56-.45 1.09-.88 1.58-1.3s1-.91 1.64-1.47v1.58c-.63.6-1.26 1.2-1.9 1.78s-1.69 1.52-3.14 2.8c-1.12.89-1.83 1.48-2.13 1.78a7.86 7.86 0 0 0-1.17 1.65c-.41.72-.84 1.4-1.28 2-.28.4-.8 1.05-1.56 2a20.69 20.69 0 0 1-2.34 2.41 3.49 3.49 0 0 1-2 1.06.91.91 0 0 1-.56-.18 1.09 1.09 0 0 1-.35-.84 6.16 6.16 0 0 1 1.52-3.3 31.23 31.23 0 0 1 2.68-3.18c.37-.36.79-.72 1.26-1.11a15.42 15.42 0 0 0 1.21-1.08 4.87 4.87 0 0 0 .85-1.18 28.84 28.84 0 0 0 1.88-4.16z"/></g></g></symbol></svg>