<?xml version="1.0" encoding="utf-8"?>
<!-- Generator: Adobe Illustrator 18.0.0, SVG Export Plug-In . SVG Version: 6.00 Build 0)  -->
<!DOCTYPE svg PUBLIC "-//W3C//DTD SVG 1.1//EN" "http://www.w3.org/Graphics/SVG/1.1/DTD/svg11.dtd" [
	<!ENTITY ns_extend "http://ns.adobe.com/Extensibility/1.0/">
	<!ENTITY ns_ai "http://ns.adobe.com/AdobeIllustrator/10.0/">
	<!ENTITY ns_graphs "http://ns.adobe.com/Graphs/1.0/">
	<!ENTITY ns_vars "http://ns.adobe.com/Variables/1.0/">
	<!ENTITY ns_imrep "http://ns.adobe.com/ImageReplacement/1.0/">
	<!ENTITY ns_sfw "http://ns.adobe.com/SaveForWeb/1.0/">
	<!ENTITY ns_custom "http://ns.adobe.com/GenericCustomNamespace/1.0/">
	<!ENTITY ns_adobe_xpath "http://ns.adobe.com/XPath/1.0/">
]>
<svg version="1.1" id="icons" xmlns:x="&ns_extend;" xmlns:i="&ns_ai;" xmlns:graph="&ns_graphs;"
	 xmlns="http://www.w3.org/2000/svg" xmlns:xlink="http://www.w3.org/1999/xlink" x="0px" y="0px" viewBox="0 0 24 24"
	 enable-background="new 0 0 24 24" xml:space="preserve">
<metadata>
	<sfw  xmlns="&ns_sfw;">
		<slices></slices>
		<sliceSourceBounds  height="200" width="332" x="21" y="-287" bottomLeftOrigin="true"></sliceSourceBounds>
		<optimizationSettings>
			<targetSettings  fileFormat="PNG24Format" targetSettingsID="0">
				<PNG24Format  transparency="true" filtered="false" noMatteColor="false" matteColor="#FFFFFF" interlaced="false">
					</PNG24Format>
			</targetSettings>
		</optimizationSettings>
	</sfw>
</metadata>
<path fill="#5B5B5B" d="M23.5,22c-1.082,0-1.649,0.296-2.15,0.557C20.894,22.795,20.499,23,19.662,23s-1.231-0.205-1.688-0.443
	C17.474,22.296,16.906,22,15.824,22c-1.081,0-1.647,0.296-2.147,0.557C13.221,22.795,12.827,23,11.992,23s-1.229-0.205-1.684-0.443
	C9.809,22.296,9.242,22,8.161,22c-1.08,0-1.646,0.296-2.146,0.557C5.56,22.795,5.166,23,4.331,23s-1.229-0.205-1.684-0.443
	C2.147,22.296,1.581,22,0.5,22C0.224,22,0,22.224,0,22.5S0.224,23,0.5,23c0.836,0,1.229,0.205,1.685,0.443
	C2.685,23.704,3.251,24,4.331,24s1.646-0.296,2.146-0.557C6.933,23.205,7.326,23,8.161,23c0.836,0,1.229,0.205,1.685,0.443
	c0.5,0.261,1.066,0.557,2.146,0.557c1.081,0,1.647-0.296,2.147-0.557C14.596,23.205,14.989,23,15.824,23
	c0.837,0,1.231,0.205,1.688,0.443C18.013,23.704,18.58,24,19.662,24s1.649-0.296,2.15-0.557C22.269,23.205,22.663,23,23.5,23
	c0.276,0,0.5-0.224,0.5-0.5S23.776,22,23.5,22z"/>
<path fill="#5B5B5B" d="M19.66,18c1.082,0,1.65-0.296,2.151-0.557C22.268,17.205,22.662,17,23.5,17c0.276,0,0.5-0.224,0.5-0.5
	S23.776,16,23.5,16c-1.082,0-1.65,0.296-2.151,0.557C20.893,16.795,20.498,17,19.66,17s-1.232-0.205-1.688-0.443
	C17.471,16.296,16.902,16,15.82,16c-0.134,0-0.257,0.005-0.369,0.013c-0.35-0.605-0.848-1.105-1.451-1.457V13h1.5
	c0.276,0,0.5-0.224,0.5-0.5S15.776,12,15.5,12H14v-2h1.5c0.276,0,0.5-0.224,0.5-0.5S15.776,9,15.5,9H14V7h1.5
	C15.776,7,16,6.776,16,6.5S15.776,6,15.5,6H14V4h1.5C15.776,4,16,3.776,16,3.5S15.776,3,15.5,3H14V2c0-1.103-0.897-2-2-2
	s-2,0.897-2,2v12.556c-0.607,0.354-1.107,0.858-1.456,1.467C8.417,16.014,8.305,16,8.16,16c-1.076,0-1.642,0.295-2.141,0.556
	C5.563,16.794,5.169,17,4.33,17c-0.831,0-1.224-0.205-1.678-0.442C2.151,16.296,1.584,16,0.5,16C0.224,16,0,16.224,0,16.5
	S0.224,17,0.5,17c0.839,0,1.232,0.206,1.689,0.444C2.688,17.705,3.254,18,4.33,18c1.084,0,1.651-0.296,2.152-0.558
	c0.45-0.235,0.843-0.438,1.659-0.441C8.058,17.322,8,17.653,8,18c0,0.348,0.059,0.679,0.142,1.001
	c-1.063,0.004-1.627,0.295-2.123,0.554C5.563,19.794,5.169,20,4.33,20c-0.831,0-1.224-0.205-1.678-0.442
	C2.151,19.296,1.584,19,0.5,19C0.224,19,0,19.224,0,19.5S0.224,20,0.5,20c0.839,0,1.232,0.206,1.689,0.444
	C2.688,20.705,3.254,21,4.33,21c1.084,0,1.651-0.296,2.152-0.558C6.937,20.205,7.329,20,8.16,20c0.156,0,0.28,0.016,0.412,0.029
	C9.269,21.203,10.537,22,12,22c1.463,0,2.731-0.797,3.429-1.972C15.554,20.016,15.672,20,15.82,20c0.838,0,1.232,0.205,1.688,0.443
	C18.01,20.704,18.578,21,19.66,21s1.65-0.296,2.151-0.557C22.268,20.205,22.662,20,23.5,20c0.276,0,0.5-0.224,0.5-0.5
	S23.776,19,23.5,19c-1.082,0-1.65,0.296-2.151,0.557C20.893,19.795,20.498,20,19.66,20s-1.232-0.205-1.688-0.443
	c-0.495-0.257-1.059-0.547-2.114-0.554C15.941,18.68,16,18.348,16,18c0-0.346-0.058-0.677-0.141-0.997
	c0.808,0.007,1.202,0.207,1.65,0.441C18.01,17.704,18.578,18,19.66,18z M11,2c0-0.551,0.448-1,1-1s1,0.449,1,1v12.142
	C12.678,14.058,12.347,14,12,14s-0.678,0.058-1,0.142V2z M12,21c-1.654,0-3-1.346-3-3s1.346-3,3-3s3,1.346,3,3S13.654,21,12,21z"/>
</svg>
