<?xml version="1.0" encoding="utf-8"?>
<!-- Generator: Adobe Illustrator 18.0.0, SVG Export Plug-In . SVG Version: 6.00 Build 0)  -->
<!DOCTYPE svg PUBLIC "-//W3C//DTD SVG 1.1//EN" "http://www.w3.org/Graphics/SVG/1.1/DTD/svg11.dtd" [
	<!ENTITY ns_extend "http://ns.adobe.com/Extensibility/1.0/">
	<!ENTITY ns_ai "http://ns.adobe.com/AdobeIllustrator/10.0/">
	<!ENTITY ns_graphs "http://ns.adobe.com/Graphs/1.0/">
	<!ENTITY ns_vars "http://ns.adobe.com/Variables/1.0/">
	<!ENTITY ns_imrep "http://ns.adobe.com/ImageReplacement/1.0/">
	<!ENTITY ns_sfw "http://ns.adobe.com/SaveForWeb/1.0/">
	<!ENTITY ns_custom "http://ns.adobe.com/GenericCustomNamespace/1.0/">
	<!ENTITY ns_adobe_xpath "http://ns.adobe.com/XPath/1.0/">
]>
<svg version="1.1" id="icons" xmlns:x="&ns_extend;" xmlns:i="&ns_ai;" xmlns:graph="&ns_graphs;"
	 xmlns="http://www.w3.org/2000/svg" xmlns:xlink="http://www.w3.org/1999/xlink" x="0px" y="0px" viewBox="0 0 24 24"
	 enable-background="new 0 0 24 24" xml:space="preserve">
<metadata>
	<sfw  xmlns="&ns_sfw;">
		<slices></slices>
		<sliceSourceBounds  height="200" width="332" x="21" y="-287" bottomLeftOrigin="true"></sliceSourceBounds>
		<optimizationSettings>
			<targetSettings  fileFormat="PNG24Format" targetSettingsID="0">
				<PNG24Format  transparency="true" filtered="false" noMatteColor="false" matteColor="#FFFFFF" interlaced="false">
					</PNG24Format>
			</targetSettings>
		</optimizationSettings>
	</sfw>
</metadata>
<path fill="#5B5B5B" d="M23.5,15h-2c-0.276,0-0.5,0.224-0.5,0.5V16h-1V9.5C20,8.673,19.327,8,18.5,8H18V7h0.5
	C18.776,7,19,6.776,19,6.5v-1C19,4.673,18.327,4,17.5,4S16,4.673,16,5.5v1C16,6.776,16.224,7,16.5,7H17v1h-3V7h0.5
	C14.776,7,15,6.776,15,6.5v-1C15,4.673,14.327,4,13.5,4S12,4.673,12,5.5v1C12,6.776,12.224,7,12.5,7H13v1h-3V7h0.5
	C10.776,7,11,6.776,11,6.5v-1C11,4.673,10.327,4,9.5,4S8,4.673,8,5.5v1C8,6.776,8.224,7,8.5,7H9v1H6V7h0.5C6.776,7,7,6.776,7,6.5v-1
	C7,4.673,6.327,4,5.5,4S4,4.673,4,5.5v1C4,6.776,4.224,7,4.5,7H5v1H4.5C3.673,8,3,8.673,3,9.5V10H2V8.5C2,8.224,1.776,8,1.5,8
	S1,8.224,1,8.5v4C1,12.776,1.224,13,1.5,13S2,12.776,2,12.5V11h1v4H2.5C1.673,15,1,15.673,1,16.5v2C1,19.327,1.673,20,2.5,20h0.592
	c0.207,0.581,0.757,1,1.408,1h14c0.651,0,1.201-0.419,1.408-1H21v0.5c0,0.276,0.224,0.5,0.5,0.5h2c0.276,0,0.5-0.224,0.5-0.5v-5
	C24,15.224,23.776,15,23.5,15z M17,5.5C17,5.225,17.224,5,17.5,5S18,5.225,18,5.5V6h-1V5.5z M13,5.5C13,5.225,13.224,5,13.5,5
	S14,5.225,14,5.5V6h-1V5.5z M9,5.5C9,5.225,9.224,5,9.5,5S10,5.225,10,5.5V6H9V5.5z M5,5.5C5,5.225,5.224,5,5.5,5S6,5.225,6,5.5V6H5
	V5.5z M4,9.5C4,9.225,4.224,9,4.5,9h14C18.776,9,19,9.225,19,9.5V11H4V9.5z M2,18.5v-2C2,16.225,2.224,16,2.5,16H3v3H2.5
	C2.224,19,2,18.775,2,18.5z M18.5,20h-14C4.224,20,4,19.775,4,19.5v-4V12h15v3h-1.375H16.5c-0.276,0-0.5-0.225-0.5-0.5v-1.125
	c0-0.276-0.224-0.5-0.5-0.5s-0.5,0.224-0.5,0.5V14.5c0,0.176,0.036,0.343,0.092,0.5h-0.467H13.5c-0.276,0-0.5-0.225-0.5-0.5v-1.125
	c0-0.276-0.224-0.5-0.5-0.5s-0.5,0.224-0.5,0.5V14.5c0,0.176,0.036,0.343,0.092,0.5h-0.467H10.5c-0.276,0-0.5-0.225-0.5-0.5v-1.125
	c0-0.276-0.224-0.5-0.5-0.5S9,13.099,9,13.375V14.5c0,0.176,0.036,0.343,0.092,0.5H8.625H7.5C7.224,15,7,14.775,7,14.5v-1.125
	c0-0.276-0.224-0.5-0.5-0.5S6,13.099,6,13.375V14.5C6,15.327,6.673,16,7.5,16h1.125H10.5h1.125H13.5h1.125H16.5h1.125H19v0.5v3
	C19,19.775,18.776,20,18.5,20z M20,19v-2h1v2H20z M23,20h-1v-0.5v-3V16h1V20z"/>
</svg>
