<?xml version="1.0" encoding="utf-8"?>
<!-- Generator: Adobe Illustrator 18.0.0, SVG Export Plug-In . SVG Version: 6.00 Build 0)  -->
<!DOCTYPE svg PUBLIC "-//W3C//DTD SVG 1.1//EN" "http://www.w3.org/Graphics/SVG/1.1/DTD/svg11.dtd" [
	<!ENTITY ns_extend "http://ns.adobe.com/Extensibility/1.0/">
	<!ENTITY ns_ai "http://ns.adobe.com/AdobeIllustrator/10.0/">
	<!ENTITY ns_graphs "http://ns.adobe.com/Graphs/1.0/">
	<!ENTITY ns_vars "http://ns.adobe.com/Variables/1.0/">
	<!ENTITY ns_imrep "http://ns.adobe.com/ImageReplacement/1.0/">
	<!ENTITY ns_sfw "http://ns.adobe.com/SaveForWeb/1.0/">
	<!ENTITY ns_custom "http://ns.adobe.com/GenericCustomNamespace/1.0/">
	<!ENTITY ns_adobe_xpath "http://ns.adobe.com/XPath/1.0/">
]>
<svg version="1.1" id="icons" xmlns:x="&ns_extend;" xmlns:i="&ns_ai;" xmlns:graph="&ns_graphs;"
	 xmlns="http://www.w3.org/2000/svg" xmlns:xlink="http://www.w3.org/1999/xlink" x="0px" y="0px" viewBox="0 0 24 24"
	 enable-background="new 0 0 24 24" xml:space="preserve">
<metadata>
	<sfw  xmlns="&ns_sfw;">
		<slices></slices>
		<sliceSourceBounds  height="200" width="332" x="21" y="-287" bottomLeftOrigin="true"></sliceSourceBounds>
		<optimizationSettings>
			<targetSettings  fileFormat="PNG24Format" targetSettingsID="0">
				<PNG24Format  transparency="true" filtered="false" noMatteColor="false" matteColor="#FFFFFF" interlaced="false">
					</PNG24Format>
			</targetSettings>
		</optimizationSettings>
	</sfw>
</metadata>
<path fill="#5B5B5B" d="M22.13,8.124c-0.003-0.008-0.002-0.017-0.005-0.025c-0.002-0.005-0.007-0.009-0.01-0.014
	c-0.579-1.386-1.42-2.635-2.463-3.685c-0.008-0.01-0.012-0.022-0.021-0.031S19.61,4.356,19.6,4.347
	c-1.05-1.043-2.299-1.884-3.685-2.463c-0.005-0.002-0.009-0.007-0.014-0.01c-0.008-0.004-0.017-0.002-0.026-0.005
	C14.526,1.312,13.049,1,11.5,1C9.951,1,8.474,1.312,7.124,1.87C7.116,1.873,7.107,1.871,7.099,1.875
	C7.093,1.877,7.09,1.882,7.084,1.885C5.699,2.463,4.449,3.304,3.4,4.347C3.39,4.356,3.377,4.359,3.368,4.368S3.356,4.39,3.347,4.4
	c-1.043,1.05-1.884,2.299-2.463,3.685C0.882,8.09,0.877,8.093,0.875,8.099C0.872,8.107,0.873,8.116,0.87,8.124
	C0.312,9.474,0,10.951,0,12.5s0.312,3.026,0.87,4.376c0.003,0.008,0.002,0.017,0.005,0.025c0.002,0.004,0.006,0.005,0.008,0.009
	c0.579,1.388,1.42,2.639,2.464,3.69c0.008,0.01,0.012,0.022,0.021,0.031S3.39,20.644,3.4,20.653C5.48,22.72,8.343,24,11.5,24
	s6.02-1.28,8.1-3.347c0.01-0.008,0.022-0.012,0.031-0.021s0.013-0.022,0.021-0.031c1.044-1.051,1.886-2.302,2.464-3.69
	c0.002-0.004,0.006-0.005,0.008-0.009c0.003-0.008,0.002-0.017,0.005-0.025C22.688,15.526,23,14.049,23,12.5
	S22.688,9.474,22.13,8.124z M4.449,20.258l1.04-1.04c0.195-0.195,0.195-0.512,0-0.707s-0.512-0.195-0.707,0l-1.04,1.04
	c-0.697-0.766-1.281-1.633-1.729-2.58l0.439-0.182c0.255-0.105,0.376-0.398,0.271-0.653c-0.105-0.254-0.396-0.377-0.653-0.271
	L1.63,16.047C1.284,15.088,1.076,14.065,1.025,13H2.5C2.776,13,3,12.776,3,12.5S2.776,12,2.5,12H1.025
	c0.05-1.065,0.258-2.088,0.605-3.047l0.439,0.182c0.063,0.026,0.127,0.038,0.191,0.038c0.196,0,0.382-0.116,0.462-0.309
	c0.105-0.255-0.016-0.548-0.271-0.653L2.013,8.029c0.448-0.947,1.032-1.814,1.729-2.58l1.04,1.04
	C4.88,6.587,5.008,6.636,5.136,6.636s0.256-0.049,0.354-0.146c0.195-0.195,0.195-0.512,0-0.707l-1.04-1.04
	c0.766-0.697,1.633-1.281,2.58-1.729l0.182,0.439c0.08,0.192,0.266,0.309,0.462,0.309c0.063,0,0.129-0.012,0.191-0.038
	C8.119,3.617,8.24,3.324,8.135,3.069L7.953,2.63C8.912,2.284,9.935,2.076,11,2.025V3.5C11,3.776,11.224,4,11.5,4S12,3.776,12,3.5
	V2.025c1.065,0.05,2.088,0.258,3.047,0.605l-0.182,0.439c-0.105,0.255,0.016,0.548,0.271,0.653c0.063,0.026,0.127,0.038,0.191,0.038
	c0.196,0,0.382-0.116,0.462-0.309l0.182-0.439c0.947,0.448,1.814,1.032,2.58,1.729l-1.04,1.04c-0.195,0.195-0.195,0.512,0,0.707
	c0.098,0.098,0.226,0.146,0.354,0.146s0.256-0.049,0.354-0.146l1.04-1.04c0.697,0.766,1.281,1.633,1.729,2.58l-0.439,0.182
	c-0.255,0.105-0.376,0.398-0.271,0.653c0.08,0.192,0.266,0.309,0.462,0.309c0.063,0,0.129-0.012,0.191-0.038l0.439-0.182
	c0.346,0.96,0.554,1.982,0.605,3.047H20.5c-0.276,0-0.5,0.224-0.5,0.5s0.224,0.5,0.5,0.5h1.475c-0.05,1.065-0.258,2.088-0.605,3.047
	l-0.439-0.182c-0.254-0.107-0.547,0.015-0.653,0.271c-0.105,0.255,0.016,0.548,0.271,0.653l0.439,0.182
	c-0.448,0.947-1.032,1.814-1.729,2.58l-1.04-1.04c-0.195-0.195-0.512-0.195-0.707,0s-0.195,0.512,0,0.707l1.04,1.04
	C16.685,21.955,14.215,23,11.5,23S6.315,21.955,4.449,20.258z"/>
<path fill="#5B5B5B" d="M10,12.5c0,0.827,0.673,1.5,1.5,1.5s1.5-0.673,1.5-1.5S12.327,11,11.5,11c-0.231,0-0.447,0.057-0.643,0.15
	L6.854,7.146c-0.195-0.195-0.512-0.195-0.707,0s-0.195,0.512,0,0.707l4.004,4.004C10.057,12.053,10,12.269,10,12.5z M12,12.5
	c0,0.275-0.225,0.5-0.5,0.5S11,12.775,11,12.5s0.225-0.5,0.5-0.5S12,12.225,12,12.5z"/>
<path fill="#5B5B5B" d="M15.5,15h-8C7.224,15,7,15.224,7,15.5v2C7,17.776,7.224,18,7.5,18h8c0.276,0,0.5-0.224,0.5-0.5v-2
	C16,15.224,15.776,15,15.5,15z M15,17H8v-1h7V17z"/>
</svg>
