<?xml version="1.0" encoding="iso-8859-1"?>
<!-- Generator: Adobe Illustrator 21.0.0, SVG Export Plug-In . SVG Version: 6.00 Build 0)  -->
<svg version="1.1" id="Layer_1_1_" xmlns="http://www.w3.org/2000/svg" xmlns:xlink="http://www.w3.org/1999/xlink" x="0px" y="0px"
	 viewBox="0 0 64 64" style="enable-background:new 0 0 64 64;" xml:space="preserve">
<g>
</g>
<path d="M3,62h10h8h36c2.757,0,5-2.243,5-5V23c0-0.553-0.447-1-1-1H43V9c0-3.859-3.141-7-7-7s-7,3.141-7,7v8.586L24.586,22H21h-8H3
	c-0.553,0-1,0.447-1,1v38C2,61.553,2.447,62,3,62z M25,24c0.266,0,0.52-0.105,0.707-0.293l5-5C30.895,18.52,31,18.266,31,18V9
	c0-2.757,2.243-5,5-5s5,2.243,5,5v14c0,0.553,0.447,1,1,1h18v8h-6v2h6v8h-6v2h6v8h-6v2h6v3c0,1.654-1.346,3-3,3H22V24H25z M20,60h-6
	V24h6V60z M4,24h8v36H4V24z"/>
<rect x="16" y="56" width="2" height="2"/>
</svg>
