<?xml version="1.0" encoding="iso-8859-1"?>
<!-- Generator: Adobe Illustrator 19.2.1, SVG Export Plug-In . SVG Version: 6.00 Build 0)  -->
<svg version="1.1" id="Layer_1_1_" xmlns="http://www.w3.org/2000/svg" xmlns:xlink="http://www.w3.org/1999/xlink" x="0px" y="0px"
	 viewBox="0 0 64 64" style="enable-background:new 0 0 64 64;" xml:space="preserve">
<g>
</g>
<g>
	<path d="M47,32.051V30h2v-2h-6v2h2v2.051C37.747,32.567,32,38.618,32,46c0,2.551,0.697,4.938,1.894,7H16V16h31v10h2V15
		c0-0.552-0.447-1-1-1H15c-0.553,0-1,0.448-1,1v1h-3c-3.859,0-7,3.14-7,7v23c0,3.86,3.141,7,7,7h3v1c0,0.552,0.447,1,1,1h20.292
		c2.57,3.053,6.414,5,10.708,5c7.72,0,14-6.28,14-14C60,38.618,54.253,32.567,47,32.051z M11,51c-2.757,0-5-2.243-5-5V23
		c0-2.757,2.243-5,5-5h3v3h-2c-1.654,0-3,1.346-3,3v21c0,1.654,1.346,3,3,3h2v3H11z M14,23v23h-2c-0.552,0-1-0.449-1-1V24
		c0-0.551,0.448-1,1-1H14z M46,58c-6.617,0-12-5.383-12-12s5.383-12,12-12s12,5.383,12,12S52.617,58,46,58z"/>
	<path d="M24.344,8c0,0.645,0.251,1.251,0.707,1.707c0.161,0.162,0.161,0.424,0,0.586l1.414,1.414c0.94-0.941,0.94-2.473,0-3.415
		C26.359,8.187,26.344,8.064,26.344,8s0.016-0.187,0.121-0.293c0.94-0.941,0.94-2.473,0-3.415C26.359,4.187,26.344,4.064,26.344,4
		s0.016-0.187,0.121-0.292l-1.414-1.415C24.595,2.749,24.344,3.355,24.344,4s0.251,1.251,0.707,1.707
		c0.161,0.162,0.161,0.424,0,0.585C24.595,6.749,24.344,7.355,24.344,8z"/>
	<path d="M29.758,8c0,0.645,0.251,1.251,0.707,1.707c0.161,0.162,0.161,0.424,0,0.586l1.414,1.414c0.94-0.941,0.94-2.473,0-3.415
		C31.773,8.187,31.758,8.064,31.758,8s0.016-0.187,0.121-0.293c0.94-0.941,0.94-2.473,0-3.415C31.773,4.187,31.758,4.064,31.758,4
		s0.016-0.187,0.121-0.292l-1.414-1.415C30.009,2.749,29.758,3.355,29.758,4s0.251,1.251,0.707,1.707
		c0.161,0.162,0.161,0.424,0,0.585C30.009,6.749,29.758,7.355,29.758,8z"/>
	<path d="M35.172,8c0,0.645,0.251,1.251,0.707,1.707c0.161,0.162,0.161,0.424,0,0.586l1.414,1.414c0.94-0.941,0.94-2.473,0-3.415
		C37.188,8.187,37.172,8.064,37.172,8s0.016-0.187,0.121-0.293c0.94-0.941,0.94-2.473,0-3.415C37.188,4.187,37.172,4.064,37.172,4
		s0.016-0.187,0.121-0.292l-1.414-1.415C35.423,2.749,35.172,3.355,35.172,4s0.251,1.251,0.707,1.707
		c0.161,0.162,0.161,0.424,0,0.585C35.423,6.749,35.172,7.355,35.172,8z"/>
	<path d="M45.803,44.783l-3.355-1.678l-0.895,1.789l4,2C45.695,46.965,45.848,47,46,47c0.259,0,0.515-0.101,0.707-0.293l4-4
		l-1.414-1.414L45.803,44.783z"/>
	<path d="M46,36c-5.514,0-10,4.486-10,10s4.486,10,10,10s10-4.486,10-10S51.514,36,46,36z M46,54c-4.411,0-8-3.589-8-8s3.589-8,8-8
		s8,3.589,8,8S50.411,54,46,54z"/>
	<rect x="56.5" y="31.379" transform="matrix(0.7071 -0.7071 0.7071 0.7071 -6.8467 50.4706)" width="2" height="4.243"/>
	<rect x="33" y="32" width="2" height="2"/>
	<rect x="29" y="32" width="2" height="2"/>
	<rect x="25" y="32" width="2" height="2"/>
</g>
</svg>
