<?xml version="1.0" encoding="utf-8"?>
<!-- Generator: Adobe Illustrator 18.0.0, SVG Export Plug-In . SVG Version: 6.00 Build 0)  -->
<!DOCTYPE svg PUBLIC "-//W3C//DTD SVG 1.1//EN" "http://www.w3.org/Graphics/SVG/1.1/DTD/svg11.dtd" [
	<!ENTITY ns_extend "http://ns.adobe.com/Extensibility/1.0/">
	<!ENTITY ns_ai "http://ns.adobe.com/AdobeIllustrator/10.0/">
	<!ENTITY ns_graphs "http://ns.adobe.com/Graphs/1.0/">
	<!ENTITY ns_vars "http://ns.adobe.com/Variables/1.0/">
	<!ENTITY ns_imrep "http://ns.adobe.com/ImageReplacement/1.0/">
	<!ENTITY ns_sfw "http://ns.adobe.com/SaveForWeb/1.0/">
	<!ENTITY ns_custom "http://ns.adobe.com/GenericCustomNamespace/1.0/">
	<!ENTITY ns_adobe_xpath "http://ns.adobe.com/XPath/1.0/">
]>
<svg version="1.1" id="icons" xmlns:x="&ns_extend;" xmlns:i="&ns_ai;" xmlns:graph="&ns_graphs;"
	 xmlns="http://www.w3.org/2000/svg" xmlns:xlink="http://www.w3.org/1999/xlink" x="0px" y="0px" viewBox="0 0 24 24"
	 enable-background="new 0 0 24 24" xml:space="preserve">
<metadata>
	<sfw  xmlns="&ns_sfw;">
		<slices></slices>
		<sliceSourceBounds  height="200" width="332" x="21" y="-287" bottomLeftOrigin="true"></sliceSourceBounds>
		<optimizationSettings>
			<targetSettings  fileFormat="PNG24Format" targetSettingsID="0">
				<PNG24Format  transparency="true" filtered="false" noMatteColor="false" matteColor="#FFFFFF" interlaced="false">
					</PNG24Format>
			</targetSettings>
		</optimizationSettings>
	</sfw>
</metadata>
<path fill="#5B5B5B" d="M12.5,2.025V1.5C12.5,1.224,12.276,1,12,1C5.383,1,0,6.383,0,13c0,0.276,0.224,0.5,0.5,0.5h0.525
	C1.289,19.333,6.103,24,12,24c6.065,0,11-4.935,11-11C23,7.103,18.333,2.289,12.5,2.025z M11.5,2.011v2.002
	C6.935,4.265,3.265,7.935,3.014,12.5H1.011C1.267,6.832,5.832,2.266,11.5,2.011z M12,23c-5.345,0-9.712-4.219-9.975-9.5H3.5
	C3.776,13.5,4,13.276,4,13c0-4.411,3.589-8,8-8c0.276,0,0.5-0.224,0.5-0.5V3.025C17.781,3.288,22,7.655,22,13
	C22,18.514,17.514,23,12,23z"/>
<path fill="#5B5B5B" d="M18,13c0-3.309-2.691-6-6-6s-6,2.691-6,6s2.691,6,6,6S18,16.309,18,13z M12,18c-2.757,0-5-2.243-5-5
	s2.243-5,5-5s5,2.243,5,5S14.757,18,12,18z"/>
<path fill="#5B5B5B" d="M12,10c-1.654,0-3,1.346-3,3s1.346,3,3,3s3-1.346,3-3S13.654,10,12,10z M12,15c-1.103,0-2-0.897-2-2
	s0.897-2,2-2s2,0.897,2,2S13.103,15,12,15z"/>
<path fill="#5B5B5B" d="M18.633,17.469c-0.287,0.424-0.617,0.823-0.979,1.186c-0.361,0.362-0.761,0.691-1.186,0.978
	c-0.428,0.289-0.885,0.538-1.358,0.738c-0.254,0.108-0.373,0.401-0.265,0.656c0.08,0.19,0.266,0.305,0.46,0.305
	c0.065,0,0.132-0.013,0.195-0.04c0.532-0.226,1.047-0.505,1.528-0.831c0.478-0.323,0.926-0.692,1.332-1.099
	c0.407-0.407,0.776-0.855,1.1-1.332c0.154-0.229,0.095-0.54-0.134-0.694C19.1,17.181,18.788,17.24,18.633,17.469z"/>
<path fill="#5B5B5B" d="M19.803,16.41c0.057,0.021,0.115,0.031,0.173,0.031c0.203,0,0.395-0.125,0.469-0.327
	c0.156-0.423,0.282-0.861,0.372-1.301c0.057-0.271-0.118-0.535-0.389-0.591c-0.266-0.051-0.535,0.117-0.59,0.389
	c-0.081,0.392-0.192,0.781-0.331,1.157C19.411,16.026,19.543,16.314,19.803,16.41z"/>
</svg>
